<svg width="25" height="24" viewBox="0 0 25 24" fill="none" xmlns="http://www.w3.org/2000/svg">
<path d="M11.5303 8.53033C11.8232 8.23744 11.8232 7.76256 11.5303 7.46967C11.2374 7.17678 10.7626 7.17678 10.4697 7.46967L6.46967 11.4697C6.32322 11.6161 6.25 11.8081 6.25 12C6.25 12.1017 6.27024 12.1987 6.30691 12.2871C6.34351 12.3755 6.39776 12.4584 6.46967 12.5303L10.4697 16.5303C10.7626 16.8232 11.2374 16.8232 11.5303 16.5303C11.8232 16.2374 11.8232 15.7626 11.5303 15.4697L8.81066 12.75H18.5C18.9142 12.75 19.25 12.4142 19.25 12C19.25 11.5858 18.9142 11.25 18.5 11.25H8.81066L11.5303 8.53033Z" fill="#2A3437"/>
</svg>
