<svg width="20" height="20" viewBox="0 0 20 20" fill="none" xmlns="http://www.w3.org/2000/svg">
<path d="M16.1922 17.0353C14.5715 17.0353 12.9665 16.6507 11.3773 15.8814C9.78809 15.1122 8.3693 14.1034 7.12091 12.855C5.87251 11.6066 4.86236 10.1892 4.09047 8.60262C3.31857 7.0161 2.93262 5.41247 2.93262 3.79175C2.93262 3.54175 3.01595 3.33341 3.18262 3.16675C3.34928 3.00008 3.55762 2.91675 3.80762 2.91675H6.52551C6.74133 2.91675 6.92964 2.98326 7.09043 3.11627C7.25121 3.24928 7.35083 3.42103 7.3893 3.6315L7.86687 6.08339C7.89998 6.28852 7.89651 6.47495 7.85645 6.64269C7.81638 6.81042 7.72851 6.95679 7.59283 7.08179L5.67616 8.95519C6.33428 10.0727 7.11901 11.0823 8.03035 11.984C8.94167 12.8857 9.97319 13.6721 11.1249 14.343L12.9871 12.4488C13.1228 12.3131 13.2833 12.2167 13.4686 12.1595C13.654 12.1024 13.8439 12.0904 14.0383 12.1235L16.3524 12.5946C16.5629 12.6416 16.7346 12.7434 16.8676 12.8999C17.0007 13.0564 17.0672 13.2426 17.0672 13.4584V16.1603C17.0672 16.4103 16.9838 16.6186 16.8172 16.7853C16.6505 16.952 16.4422 17.0353 16.1922 17.0353ZM5.07683 7.77252L6.56401 6.34944C6.59072 6.32806 6.60808 6.29868 6.6161 6.26129C6.62411 6.22389 6.62277 6.18917 6.61208 6.15712L6.24991 4.29494C6.23921 4.2522 6.22051 4.22015 6.19381 4.19879C6.1671 4.17742 6.13237 4.16673 6.08964 4.16673H4.3076C4.27554 4.16673 4.24883 4.17742 4.22745 4.19879C4.20609 4.22015 4.19541 4.24686 4.19541 4.27892C4.23813 4.84836 4.33135 5.42689 4.47505 6.0145C4.61875 6.60211 4.81934 7.18812 5.07683 7.77252ZM15.705 15.7597C15.7371 15.7597 15.7638 15.749 15.7851 15.7276C15.8065 15.7062 15.8172 15.6795 15.8172 15.6475V13.8943C15.8172 13.8516 15.8065 13.8168 15.7851 13.7901C15.7638 13.7634 15.7317 13.7447 15.689 13.734L13.939 13.3782C13.9069 13.3676 13.8789 13.3662 13.8548 13.3742C13.8308 13.3823 13.8054 13.3996 13.7787 13.4263L12.2947 14.9263C12.8471 15.1838 13.4232 15.3807 14.0231 15.5169C14.623 15.6531 15.1836 15.734 15.705 15.7597Z" fill="white"/>
</svg>
