<svg width="20" height="20" viewBox="0 0 20 20" fill="none" xmlns="http://www.w3.org/2000/svg">
<path d="M16.1922 17.0346C14.5715 17.0346 12.9665 16.6499 11.3773 15.8807C9.78809 15.1115 8.3693 14.1027 7.12091 12.8543C5.87251 11.6059 4.86236 10.1884 4.09047 8.60189C3.31857 7.01536 2.93262 5.41174 2.93262 3.79102C2.93262 3.54102 3.01595 3.33268 3.18262 3.16602C3.34928 2.99935 3.55762 2.91602 3.80762 2.91602H6.52551C6.74133 2.91602 6.92964 2.98252 7.09043 3.11554C7.25121 3.24855 7.35083 3.42029 7.3893 3.63077L7.86687 6.08266C7.89998 6.28779 7.89651 6.47422 7.85645 6.64195C7.81638 6.80969 7.72851 6.95606 7.59283 7.08106L5.67616 8.95445C6.33428 10.072 7.11901 11.0816 8.03035 11.9833C8.94167 12.885 9.97319 13.6713 11.1249 14.3423L12.9871 12.4481C13.1228 12.3124 13.2833 12.216 13.4686 12.1588C13.654 12.1016 13.8439 12.0896 14.0383 12.1227L16.3524 12.5939C16.5629 12.6409 16.7346 12.7427 16.8676 12.8992C17.0007 13.0557 17.0672 13.2419 17.0672 13.4577V16.1596C17.0672 16.4096 16.9838 16.6179 16.8172 16.7846C16.6505 16.9512 16.4422 17.0346 16.1922 17.0346ZM5.07683 7.77179L6.56401 6.3487C6.59072 6.32733 6.60808 6.29795 6.6161 6.26056C6.62411 6.22316 6.62277 6.18843 6.61208 6.15639L6.24991 4.2942C6.23921 4.25147 6.22051 4.21942 6.19381 4.19806C6.1671 4.17668 6.13237 4.166 6.08964 4.166H4.3076C4.27554 4.166 4.24883 4.17668 4.22745 4.19806C4.20609 4.21942 4.19541 4.24613 4.19541 4.27818C4.23813 4.84763 4.33135 5.42615 4.47505 6.01377C4.61875 6.60138 4.81934 7.18738 5.07683 7.77179ZM15.705 15.7589C15.7371 15.7589 15.7638 15.7483 15.7851 15.7269C15.8065 15.7055 15.8172 15.6788 15.8172 15.6467V13.8936C15.8172 13.8508 15.8065 13.8161 15.7851 13.7894C15.7638 13.7627 15.7317 13.744 15.689 13.7333L13.939 13.3775C13.9069 13.3668 13.8789 13.3655 13.8548 13.3735C13.8308 13.3815 13.8054 13.3989 13.7787 13.4256L12.2947 14.9256C12.8471 15.1831 13.4232 15.3799 14.0231 15.5162C14.623 15.6524 15.1836 15.7333 15.705 15.7589Z" fill="white" fill-opacity="0.5"/>
</svg>
