<svg width="30" height="30" viewBox="0 0 30 30" fill="none" xmlns="http://www.w3.org/2000/svg">
<path d="M11.1634 12.9221H9.74749C9.49515 12.9221 9.28363 12.8367 9.11295 12.666C8.94225 12.4952 8.85689 12.2836 8.85689 12.0311C8.85689 11.7787 8.94225 11.5672 9.11295 11.3967C9.28363 11.2262 9.49515 11.1409 9.74749 11.1409H11.1634V9.72503C11.1634 9.47268 11.2488 9.26116 11.4195 9.09046C11.5903 8.91977 11.8019 8.83443 12.0544 8.83443C12.3068 8.83443 12.5183 8.91977 12.6888 9.09046C12.8593 9.26116 12.9446 9.47268 12.9446 9.72503V11.1409H14.3605C14.6128 11.1409 14.8243 11.2263 14.995 11.3971C15.1657 11.5678 15.2511 11.7795 15.2511 12.0319C15.2511 12.2844 15.1657 12.4958 14.995 12.6663C14.8243 12.8369 14.6128 12.9221 14.3605 12.9221H12.9446V14.338C12.9446 14.5903 12.8592 14.8019 12.6884 14.9726C12.5176 15.1432 12.306 15.2286 12.0536 15.2286C11.8011 15.2286 11.5896 15.1432 11.4191 14.9726C11.2486 14.8019 11.1634 14.5903 11.1634 14.338V12.9221ZM12.054 19.2935C10.0243 19.2935 8.3066 18.5907 6.90075 17.1853C5.49491 15.7798 4.79199 14.0625 4.79199 12.0334C4.79199 10.0043 5.49474 8.28633 6.90022 6.8796C8.30571 5.47289 10.023 4.76953 12.0521 4.76953C14.0812 4.76953 15.7991 5.47245 17.2059 6.8783C18.6126 8.28414 19.316 10.0019 19.316 12.0315C19.316 12.8795 19.1736 13.6894 18.8889 14.4613C18.6042 15.2332 18.2244 15.9046 17.7494 16.4755L24.5821 23.3082C24.7465 23.4726 24.8306 23.6793 24.8344 23.9282C24.8382 24.1771 24.7541 24.3876 24.5821 24.5596C24.41 24.7316 24.2015 24.8176 23.9564 24.8176C23.7113 24.8176 23.5027 24.7316 23.3307 24.5596L16.498 17.7269C15.9042 18.2171 15.2214 18.6008 14.4495 18.8779C13.6776 19.1549 12.8791 19.2935 12.054 19.2935ZM12.054 17.5123C13.584 17.5123 14.88 16.9813 15.9419 15.9194C17.0038 14.8575 17.5348 13.5616 17.5348 12.0315C17.5348 10.5015 17.0038 9.20548 15.9419 8.14358C14.88 7.08167 13.584 6.55072 12.054 6.55072C10.5239 6.55072 9.22794 7.08167 8.16604 8.14358C7.10415 9.20548 6.57321 10.5015 6.57321 12.0315C6.57321 13.5616 7.10415 14.8575 8.16604 15.9194C9.22794 16.9813 10.5239 17.5123 12.054 17.5123Z" fill="#4B5A5F"/>
</svg>
