<svg width="32" height="32" viewBox="0 0 32 32" fill="none" xmlns="http://www.w3.org/2000/svg">
<rect width="32" height="32" rx="16" fill="#5865F2"/>
<path d="M21.8348 10.6812C23.7204 13.4706 24.6516 16.617 24.3035 20.2393C24.302 20.2546 24.2941 20.2687 24.2815 20.2779C22.8537 21.3329 21.4702 21.9732 20.1062 22.3978C20.0956 22.401 20.0842 22.4008 20.0737 22.3973C20.0632 22.3937 20.054 22.3869 20.0475 22.3778C19.7324 21.9366 19.4461 21.4715 19.1952 20.9831C19.1808 20.9543 19.194 20.9197 19.2236 20.9083C19.6784 20.7359 20.1108 20.5293 20.5267 20.2847C20.5595 20.2654 20.5616 20.2181 20.5313 20.1954C20.443 20.1295 20.3556 20.0602 20.2719 19.9909C20.2562 19.9781 20.2352 19.9756 20.2174 19.9842C17.5171 21.2388 14.5591 21.2388 11.8268 19.9842C11.8091 19.9762 11.788 19.9789 11.7728 19.9915C11.6893 20.0608 11.6016 20.1295 11.5142 20.1954C11.4839 20.2181 11.4864 20.2654 11.5194 20.2847C11.9353 20.5247 12.3678 20.7359 12.8219 20.9092C12.8513 20.9205 12.8653 20.9543 12.8507 20.9831C12.6053 21.4721 12.3189 21.9373 11.9979 22.3784C11.984 22.3963 11.961 22.4045 11.9393 22.3978C10.5817 21.9732 9.1983 21.3329 7.77041 20.2779C7.75851 20.2687 7.74996 20.254 7.7487 20.2387C7.45778 17.1055 8.05069 13.933 10.2151 10.6805C10.2203 10.6719 10.2282 10.6652 10.2374 10.6612C11.3024 10.1694 12.4433 9.80761 13.6358 9.60098C13.6575 9.59762 13.6792 9.6077 13.6905 9.62702C13.8378 9.8895 14.0062 10.2261 14.1202 10.5012C15.3771 10.308 16.6537 10.308 17.937 10.5012C18.0509 10.232 18.2135 9.8895 18.3602 9.62702C18.3655 9.61744 18.3736 9.60976 18.3834 9.60508C18.3932 9.60041 18.4042 9.59897 18.4149 9.60098C19.608 9.80824 20.749 10.17 21.8131 10.6612C21.8225 10.6652 21.8302 10.6719 21.8348 10.6812ZM14.7592 16.6385C14.7723 15.7122 14.1012 14.9458 13.2587 14.9458C12.4231 14.9458 11.7584 15.7055 11.7584 16.6385C11.7584 17.5712 12.4362 18.331 13.2587 18.331C14.0945 18.331 14.7592 17.5712 14.7592 16.6385ZM20.3067 16.6385C20.3199 15.7122 19.6487 14.9458 18.8064 14.9458C17.9706 14.9458 17.3059 15.7055 17.3059 16.6385C17.3059 17.5712 17.9837 18.331 18.8064 18.331C19.6487 18.331 20.3067 17.5712 20.3067 16.6385Z" fill="white"/>
</svg>
