<svg width="24" height="24" viewBox="0 0 24 24" fill="none" xmlns="http://www.w3.org/2000/svg">
<path d="M6.00965 19.75C5.79715 19.75 5.61903 19.6781 5.47528 19.5343C5.33153 19.3905 5.25965 19.2123 5.25965 18.9997C5.25965 18.7871 5.33153 18.609 5.47528 18.4654C5.61903 18.3218 5.79715 18.25 6.00965 18.25H18.0097C18.2221 18.25 18.4003 18.3219 18.544 18.4658C18.6878 18.6096 18.7596 18.7878 18.7596 19.0003C18.7596 19.2129 18.6878 19.391 18.544 19.5346C18.4003 19.6782 18.2221 19.75 18.0097 19.75H6.00965ZM9.55835 15.2769C9.4387 15.2769 9.32695 15.2577 9.2231 15.2192C9.11927 15.1808 9.02055 15.1147 8.92695 15.0211L4.78273 10.8769C4.63786 10.7321 4.56543 10.5513 4.56543 10.3346C4.56543 10.118 4.63786 9.93722 4.78273 9.79235C4.9276 9.64748 5.10324 9.57505 5.30965 9.57505C5.51605 9.57505 5.69169 9.64748 5.83655 9.79235L9.55966 13.5154L18.1827 4.89235C18.3276 4.74748 18.5058 4.67505 18.7173 4.67505C18.9289 4.67505 19.1071 4.74748 19.2519 4.89235C19.3968 5.03722 19.4693 5.21542 19.4693 5.42695C19.4693 5.63848 19.3968 5.81668 19.2519 5.96155L10.1923 15.0211C10.0987 15.1147 9.99961 15.1808 9.89491 15.2192C9.79021 15.2577 9.67802 15.2769 9.55835 15.2769Z" fill="white"/>
</svg>
