<svg width="20" height="20" viewBox="0 0 20 20" fill="none" xmlns="http://www.w3.org/2000/svg">
<path d="M9.99998 12.6987C9.89955 12.6987 9.80607 12.6827 9.71954 12.6507C9.633 12.6186 9.55074 12.5636 9.47275 12.4856L6.88142 9.89429C6.76604 9.7789 6.70702 9.63387 6.70435 9.45919C6.70167 9.28452 6.76069 9.13683 6.88142 9.01611C7.00214 8.89538 7.15064 8.83288 7.32692 8.82861C7.50319 8.82433 7.6517 8.88255 7.77244 9.00327L9.375 10.6059V4.23081C9.375 4.05347 9.43483 3.90497 9.55448 3.78531C9.67413 3.66566 9.82263 3.60583 9.99998 3.60583C10.1773 3.60583 10.3258 3.66566 10.4455 3.78531C10.5651 3.90497 10.625 4.05347 10.625 4.23081V10.6059L12.2275 9.00327C12.3429 8.8879 12.4901 8.83101 12.669 8.83261C12.848 8.83422 12.9978 8.89538 13.1185 9.01611C13.2393 9.13683 13.2996 9.28319 13.2996 9.45519C13.2996 9.62719 13.2393 9.77356 13.1185 9.89429L10.5272 12.4856C10.4492 12.5636 10.367 12.6186 10.2804 12.6507C10.1939 12.6827 10.1004 12.6987 9.99998 12.6987ZM5.25642 16.25C4.83547 16.25 4.47917 16.1042 4.1875 15.8125C3.89583 15.5209 3.75 15.1645 3.75 14.7436V13.125C3.75 12.9477 3.80983 12.7992 3.9295 12.6795C4.04915 12.5599 4.19765 12.5 4.375 12.5C4.55235 12.5 4.70085 12.5599 4.8205 12.6795C4.94015 12.7992 4.99998 12.9477 4.99998 13.125V14.7436C4.99998 14.8077 5.02669 14.8665 5.0801 14.9199C5.13353 14.9733 5.19231 15 5.25642 15H14.7435C14.8077 15 14.8664 14.9733 14.9199 14.9199C14.9733 14.8665 15 14.8077 15 14.7436V13.125C15 12.9477 15.0598 12.7992 15.1795 12.6795C15.2991 12.5599 15.4476 12.5 15.625 12.5C15.8023 12.5 15.9508 12.5599 16.0705 12.6795C16.1901 12.7992 16.25 12.9477 16.25 13.125V14.7436C16.25 15.1645 16.1041 15.5209 15.8125 15.8125C15.5208 16.1042 15.1645 16.25 14.7435 16.25H5.25642Z" fill="white"/>
</svg>
