<svg width="24" height="24" viewBox="0 0 24 24" fill="none" xmlns="http://www.w3.org/2000/svg">
<path d="M12 15.2384C11.8795 15.2384 11.7673 15.2192 11.6634 15.1807C11.5596 15.1422 11.4609 15.0762 11.3673 14.9826L8.2577 11.8731C8.11925 11.7346 8.04842 11.5605 8.04522 11.3509C8.04201 11.1413 8.11283 10.9641 8.2577 10.8192C8.40257 10.6744 8.58077 10.5994 8.7923 10.5942C9.00383 10.5891 9.18204 10.659 9.32692 10.8038L11.25 12.7269V5.07688C11.25 4.86406 11.3218 4.68586 11.4654 4.54228C11.609 4.3987 11.7872 4.3269 12 4.3269C12.2128 4.3269 12.391 4.3987 12.5346 4.54228C12.6782 4.68586 12.7499 4.86406 12.7499 5.07688V12.7269L14.673 10.8038C14.8115 10.6654 14.9881 10.5971 15.2028 10.599C15.4176 10.601 15.5974 10.6744 15.7422 10.8192C15.8871 10.9641 15.9595 11.1397 15.9595 11.3461C15.9595 11.5525 15.8871 11.7282 15.7422 11.8731L12.6327 14.9826C12.5391 15.0762 12.4404 15.1422 12.3365 15.1807C12.2327 15.2192 12.1205 15.2384 12 15.2384ZM6.3077 19.4999C5.80257 19.4999 5.375 19.3249 5.025 18.9749C4.675 18.6249 4.5 18.1974 4.5 17.6922V15.7499C4.5 15.5371 4.5718 15.3589 4.7154 15.2153C4.85898 15.0717 5.03718 15 5.25 15C5.46282 15 5.64102 15.0717 5.7846 15.2153C5.92818 15.3589 5.99997 15.5371 5.99997 15.7499V17.6922C5.99997 17.7692 6.03202 17.8397 6.09612 17.9038C6.16024 17.9679 6.23077 18 6.3077 18H17.6922C17.7692 18 17.8397 17.9679 17.9038 17.9038C17.9679 17.8397 18 17.7692 18 17.6922V15.7499C18 15.5371 18.0718 15.3589 18.2154 15.2153C18.3589 15.0717 18.5371 15 18.75 15C18.9628 15 19.141 15.0717 19.2845 15.2153C19.4281 15.3589 19.5 15.5371 19.5 15.7499V17.6922C19.5 18.1974 19.325 18.6249 18.975 18.9749C18.625 19.3249 18.1974 19.4999 17.6922 19.4999H6.3077Z" fill="white"/>
</svg>
