<svg width="21" height="19" viewBox="0 0 21 19" fill="none" xmlns="http://www.w3.org/2000/svg">
<path d="M9.15669 18.452L7.55833 16.9437C5.59861 15.09 3.84895 13.269 2.30937 11.4807C0.76979 9.69235 0 7.77651 0 5.73317C0 4.10584 0.528897 2.74348 1.58669 1.64609C2.64449 0.548696 3.95769 0 5.5263 0C6.41759 0 7.29791 0.213161 8.16725 0.639482C9.03658 1.0658 9.81416 1.7582 10.5 2.71667C11.1858 1.7582 11.9634 1.0658 12.8327 0.639482C13.7021 0.213161 14.5824 0 15.4737 0C17.0423 0 18.3555 0.548696 19.4133 1.64609C20.4711 2.74348 21 4.10584 21 5.73317C21 7.79857 20.2171 9.73572 18.6513 11.5446C17.0855 13.3535 15.3398 15.1591 13.414 16.9614L11.8433 18.441C11.4621 18.8099 11.0144 18.9963 10.5 18.9999C9.98563 19.0036 9.53786 18.821 9.15669 18.452ZM9.70506 4.45865C9.1071 3.5134 8.47759 2.82064 7.81655 2.38037C7.15551 1.94008 6.39209 1.71993 5.5263 1.71993C4.42104 1.71993 3.49998 2.10214 2.76314 2.86657C2.02629 3.63099 1.65787 4.58653 1.65787 5.73317C1.65787 6.65342 1.94375 7.61556 2.5155 8.6196C3.08726 9.62363 3.80496 10.6218 4.66862 11.614C5.53229 12.6063 6.46787 13.5758 7.47536 14.5226C8.48284 15.4693 9.41665 16.3491 10.2768 17.1621C10.3406 17.2209 10.415 17.2503 10.5 17.2503C10.585 17.2503 10.6594 17.2209 10.7232 17.1621C11.5833 16.3491 12.5172 15.4693 13.5246 14.5226C14.5321 13.5758 15.4677 12.6063 16.3314 11.614C17.195 10.6218 17.9127 9.62363 18.4845 8.6196C19.0562 7.61556 19.3421 6.65342 19.3421 5.73317C19.3421 4.58653 18.9737 3.63099 18.2369 2.86657C17.5 2.10214 16.579 1.71993 15.4737 1.71993C14.6079 1.71993 13.8445 1.94008 13.1834 2.38037C12.5224 2.82064 11.8929 3.5134 11.2949 4.45865C11.2014 4.60565 11.0838 4.71591 10.9421 4.78942C10.8004 4.86292 10.653 4.89967 10.5 4.89967C10.347 4.89967 10.1996 4.86292 10.0579 4.78942C9.9162 4.71591 9.79859 4.60565 9.70506 4.45865Z" fill="white"/>
</svg>
