<svg width="32" height="32" viewBox="0 0 32 32" fill="none" xmlns="http://www.w3.org/2000/svg">
<rect width="32" height="32" rx="16" fill="#7D11D2"/>
<path d="M13.1882 16.0971C13.1882 14.4887 14.4925 13.1845 16.1019 13.1845C17.7113 13.1845 19.0163 14.4887 19.0163 16.0971C19.0163 17.7056 17.7113 19.0098 16.1019 19.0098C14.4925 19.0098 13.1882 17.7056 13.1882 16.0971ZM11.6127 16.0971C11.6127 18.575 13.6225 20.5836 16.1019 20.5836C18.5813 20.5836 20.5911 18.575 20.5911 16.0971C20.5911 13.6192 18.5813 11.6106 16.1019 11.6106C13.6225 11.6106 11.6127 13.6192 11.6127 16.0971ZM19.7197 11.4328C19.7196 11.6401 19.781 11.8429 19.8962 12.0153C20.0115 12.1878 20.1752 12.3222 20.3669 12.4017C20.5586 12.4811 20.7695 12.502 20.973 12.4616C21.1766 12.4212 21.3635 12.3214 21.5103 12.1749C21.6571 12.0283 21.7571 11.8415 21.7976 11.6381C21.8382 11.4348 21.8175 11.2239 21.7382 11.0323C21.6589 10.8407 21.5245 10.6769 21.352 10.5616C21.1795 10.4464 20.9767 10.3848 20.7692 10.3847H20.7688C20.4907 10.3848 20.2239 10.4953 20.0272 10.6918C19.8305 10.8883 19.7199 11.1548 19.7197 11.4328ZM12.5699 23.2091C11.7176 23.1703 11.2543 23.0284 10.9464 22.9085C10.5382 22.7497 10.247 22.5605 9.94079 22.2549C9.6346 21.9494 9.44506 21.6586 9.28685 21.2507C9.16684 20.9431 9.02486 20.48 8.98611 19.6281C8.94373 18.7071 8.93526 18.4305 8.93526 16.0972C8.93526 13.7639 8.94443 13.488 8.98611 12.5663C9.02493 11.7144 9.16796 11.2522 9.28685 10.9438C9.44576 10.5358 9.63502 10.2448 9.94079 9.93876C10.2466 9.63274 10.5375 9.44332 10.9464 9.28521C11.2541 9.16526 11.7176 9.02337 12.5699 8.98465C13.4914 8.94229 13.7683 8.93383 16.1019 8.93383C18.4355 8.93383 18.7126 8.94299 19.6349 8.98465C20.4873 9.02344 20.9498 9.16638 21.2584 9.28521C21.6666 9.44332 21.9578 9.63316 22.264 9.93876C22.5702 10.2443 22.7591 10.5358 22.918 10.9438C23.038 11.2513 23.18 11.7144 23.2187 12.5663C23.2611 13.488 23.2696 13.7639 23.2696 16.0972C23.2696 18.4305 23.2611 18.7064 23.2187 19.6281C23.1799 20.48 23.0372 20.943 22.918 21.2507C22.7591 21.6586 22.5698 21.9496 22.264 22.2549C21.9582 22.5603 21.6666 22.7497 21.2584 22.9085C20.9507 23.0284 20.4873 23.1703 19.6349 23.2091C18.7134 23.2514 18.4366 23.2599 16.1019 23.2599C13.7672 23.2599 13.4912 23.2514 12.5699 23.2091ZM12.4975 7.41278C11.5668 7.45513 10.9309 7.60262 10.3755 7.8186C9.80028 8.04165 9.31336 8.34088 8.82679 8.8264C8.34021 9.31191 8.04157 9.79931 7.81839 10.3742C7.60228 10.9296 7.4547 11.5648 7.41232 12.4949C7.36924 13.4265 7.35938 13.7244 7.35938 16.0971C7.35938 18.4699 7.36924 18.7677 7.41232 19.6993C7.4547 20.6295 7.60228 21.2647 7.81839 21.8201C8.04157 22.3946 8.34028 22.8826 8.82679 23.3679C9.31329 23.8532 9.80028 24.152 10.3755 24.3757C10.9319 24.5916 11.5668 24.7391 12.4975 24.7815C13.4302 24.8238 13.7277 24.8344 16.1019 24.8344C18.4761 24.8344 18.7741 24.8245 19.7062 24.7815C20.637 24.7391 21.2726 24.5916 21.8283 24.3757C22.4031 24.152 22.8904 23.8534 23.377 23.3679C23.8636 22.8824 24.1616 22.3946 24.3854 21.8201C24.6015 21.2647 24.7498 20.6295 24.7915 19.6993C24.8338 18.767 24.8437 18.4699 24.8437 16.0971C24.8437 13.7244 24.8338 13.4265 24.7915 12.4949C24.7491 11.5647 24.6015 10.9292 24.3854 10.3742C24.1616 9.79966 23.8628 9.31268 23.377 8.8264C22.8912 8.34011 22.4031 8.04165 21.829 7.8186C21.2726 7.60262 20.6369 7.45444 19.7069 7.41278C18.7748 7.37042 18.4768 7.35986 16.1026 7.35986C13.7284 7.35986 13.4302 7.36972 12.4975 7.41278Z" fill="white"/>
</svg>
