<svg width="32" height="32" fill="none" xmlns="http://www.w3.org/2000/svg"><rect width="32" height="32" rx="7" fill="#CF11D2"/><path d="M13.19 16.097a2.913 2.913 0 1 1 5.825.001 2.913 2.913 0 0 1-5.826 0Zm-1.576 0a4.488 4.488 0 0 0 4.489 4.487 4.488 4.488 0 1 0 0-8.973 4.488 4.488 0 0 0-4.49 4.486Zm8.107-4.664a1.048 1.048 0 0 0 1.79.742 1.048 1.048 0 0 0-.74-1.79h-.001a1.05 1.05 0 0 0-1.05 1.048Zm-7.15 11.776c-.852-.039-1.316-.18-1.624-.3a2.717 2.717 0 0 1-1.005-.654 2.695 2.695 0 0 1-.654-1.004c-.12-.308-.262-.771-.3-1.623-.043-.92-.052-1.198-.052-3.53 0-2.334.01-2.61.051-3.532.039-.852.182-1.314.3-1.622.16-.408.349-.7.655-1.005a2.694 2.694 0 0 1 1.005-.654c.308-.12.772-.262 1.624-.3.921-.043 1.198-.051 3.532-.051 2.333 0 2.61.009 3.533.05.852.04 1.315.182 1.623.301.409.158.7.348 1.006.654.306.305.495.597.654 1.005.12.307.262.77.3 1.622.043.922.051 1.198.051 3.531s-.008 2.61-.05 3.531c-.04.852-.182 1.315-.301 1.623a2.706 2.706 0 0 1-.654 1.004 2.716 2.716 0 0 1-1.006.654c-.307.12-.77.261-1.623.3-.922.042-1.198.05-3.533.05s-2.61-.008-3.532-.05Zm-.072-15.796c-.931.042-1.567.19-2.123.406a4.289 4.289 0 0 0-1.548 1.007 4.268 4.268 0 0 0-1.009 1.548c-.216.556-.363 1.19-.406 2.12-.043.933-.053 1.23-.053 3.603s.01 2.67.053 3.602c.043.93.19 1.566.406 2.121a4.27 4.27 0 0 0 1.009 1.548 4.3 4.3 0 0 0 1.548 1.008c.557.216 1.192.363 2.123.405.932.043 1.23.053 3.604.053s2.672-.01 3.604-.052c.931-.043 1.566-.19 2.122-.406a4.3 4.3 0 0 0 1.549-1.008 4.282 4.282 0 0 0 1.008-1.548c.216-.555.365-1.19.406-2.12.043-.933.053-1.23.053-3.603s-.01-2.67-.053-3.602c-.042-.93-.19-1.566-.406-2.12a4.297 4.297 0 0 0-1.008-1.549A4.278 4.278 0 0 0 21.83 7.82c-.556-.216-1.192-.365-2.122-.406-.932-.043-1.23-.053-3.604-.053-2.375 0-2.673.01-3.605.053Z" fill="#fff"/></svg>