<svg width="18" height="18" viewBox="0 0 18 18" fill="none" xmlns="http://www.w3.org/2000/svg">
<path d="M9.11685 17.9841C6.57569 17.9841 4.42093 17.0999 2.65255 15.3315C0.884185 13.5632 0 11.4084 0 8.86725C0 6.75101 0.654878 4.86991 1.96463 3.22394C3.27439 1.57795 5.01902 0.517054 7.19852 0.0412607C7.63168 -0.0673731 7.96824 0.0385064 8.20819 0.358902C8.44814 0.679298 8.46842 1.03132 8.26903 1.41496C8.04765 1.81785 7.88334 2.23642 7.77608 2.67065C7.66882 3.10486 7.61519 3.56154 7.61519 4.04067C7.61519 5.79851 8.23044 7.29268 9.46093 8.52317C10.6914 9.75365 12.1856 10.3689 13.9434 10.3689C14.4701 10.3689 14.9734 10.3022 15.4533 10.1688C15.9332 10.0354 16.3533 9.88076 16.7135 9.70475C17.0545 9.55074 17.3701 9.57515 17.6603 9.77798C17.9504 9.9808 18.0547 10.2887 17.9732 10.7016C17.5927 12.8119 16.5667 14.5533 14.8953 15.9256C13.2239 17.2979 11.2977 17.9841 9.11685 17.9841ZM9.11685 16.3753C10.69 16.3753 12.1022 15.9418 13.3535 15.0748C14.6048 14.2078 15.5165 13.0771 16.0886 11.6828C15.7311 11.7721 15.3735 11.8436 15.016 11.8973C14.6585 11.9509 14.301 11.9777 13.9434 11.9777C11.7447 11.9777 9.87212 11.2046 8.32583 9.65828C6.77953 8.11198 6.00638 6.23945 6.00638 4.04067C6.00638 3.68315 6.0332 3.32562 6.08683 2.9681C6.14046 2.61057 6.21196 2.25305 6.30134 1.89553C4.907 2.46756 3.77633 3.37925 2.90933 4.63059C2.04233 5.88192 1.60883 7.29415 1.60883 8.86725C1.60883 10.9409 2.34176 12.7106 3.80761 14.1765C5.27346 15.6423 7.04321 16.3753 9.11685 16.3753Z" fill="white"/>
</svg>
