<svg width="32" height="32" fill="none" xmlns="http://www.w3.org/2000/svg"><rect width="32" height="32" rx="7" fill="#0A97BC"/><path d="M23.002 23.887c-1.702 0-3.387-.404-5.056-1.212a16.35 16.35 0 0 1-4.47-3.177 16.45 16.45 0 0 1-3.181-4.465c-.81-1.666-1.216-3.35-1.216-5.052a.89.89 0 0 1 .263-.656.89.89 0 0 1 .656-.262h2.854c.226 0 .424.07.593.209.169.14.273.32.314.541l.501 2.574c.035.216.031.412-.01.588a.902.902 0 0 1-.278.46l-2.012 1.968a15.565 15.565 0 0 0 2.472 3.18c.957.947 2.04 1.773 3.249 2.477l1.955-1.989c.143-.142.311-.244.506-.304s.394-.072.598-.037l2.43.494c.22.05.401.157.54.32.14.165.21.36.21.587v2.837a.89.89 0 0 1-.262.657.89.89 0 0 1-.656.262ZM11.33 14.161l1.561-1.494a.157.157 0 0 0 .055-.093.204.204 0 0 0-.004-.11l-.38-1.954a.18.18 0 0 0-.06-.101.17.17 0 0 0-.109-.034h-1.871a.114.114 0 0 0-.118.118 11.194 11.194 0 0 0 .926 3.668Zm7.578 7.512c.58.27 1.185.477 1.815.62.63.143 1.219.228 1.766.255a.115.115 0 0 0 .118-.118v-1.841a.17.17 0 0 0-.034-.11.18.18 0 0 0-.1-.058l-1.838-.374a.139.139 0 0 0-.089-.004.214.214 0 0 0-.08.055l-1.558 1.575Z" fill="#fff"/></svg>