<svg width="20" height="20" viewBox="0 0 20 20" fill="none" xmlns="http://www.w3.org/2000/svg">
<path d="M10.6246 9.74742V6.45894C10.6246 6.28187 10.5647 6.13344 10.4449 6.01365C10.325 5.89386 10.1765 5.83396 9.99938 5.83396C9.82222 5.83396 9.67381 5.89386 9.55415 6.01365C9.4345 6.13344 9.37468 6.28187 9.37468 6.45894V9.93974C9.37468 10.0378 9.39283 10.1329 9.42915 10.2248C9.46547 10.3168 9.52263 10.4018 9.60063 10.4798L12.4548 13.334C12.5702 13.4493 12.7152 13.5084 12.8899 13.511C13.0646 13.5137 13.2123 13.4547 13.333 13.334C13.4537 13.2132 13.5141 13.0669 13.5141 12.8949C13.5141 12.7229 13.4537 12.5765 13.333 12.4558L10.6246 9.74742ZM10.001 17.9173C8.90611 17.9173 7.87691 17.7095 6.91347 17.2939C5.95001 16.8784 5.11194 16.3144 4.39926 15.6021C3.68656 14.8897 3.12235 14.052 2.70661 13.089C2.29088 12.126 2.08301 11.097 2.08301 10.002C2.08301 8.90708 2.29079 7.87789 2.70634 6.91444C3.1219 5.95098 3.68586 5.11292 4.39822 4.40024C5.11059 3.68754 5.94829 3.12333 6.91132 2.70759C7.87433 2.29185 8.90331 2.08398 9.99826 2.08398C11.0932 2.08398 12.1224 2.29176 13.0858 2.70732C14.0493 3.12287 14.8874 3.68683 15.6001 4.39919C16.3127 5.11157 16.877 5.94927 17.2927 6.9123C17.7084 7.87531 17.9163 8.90429 17.9163 9.99924C17.9163 11.0942 17.7085 12.1234 17.293 13.0868C16.8774 14.0503 16.3135 14.8883 15.6011 15.601C14.8887 16.3137 14.051 16.8779 13.088 17.2937C12.125 17.7094 11.096 17.9173 10.001 17.9173ZM9.99965 16.6673C11.8469 16.6673 13.4198 16.018 14.7184 14.7194C16.017 13.4208 16.6663 11.8479 16.6663 10.0006C16.6663 8.15341 16.017 6.58049 14.7184 5.28188C13.4198 3.98327 11.8469 3.33396 9.99965 3.33396C8.15243 3.33396 6.57951 3.98327 5.2809 5.28188C3.98229 6.58049 3.33299 8.15341 3.33299 10.0006C3.33299 11.8479 3.98229 13.4208 5.2809 14.7194C6.57951 16.018 8.15243 16.6673 9.99965 16.6673Z" fill="white" fill-opacity="0.5"/>
</svg>
