<svg width="20" height="20" viewBox="0 0 20 20" fill="none" xmlns="http://www.w3.org/2000/svg">
<path d="M6.66632 9.07015C6.87038 9.07015 7.04425 8.99831 7.18795 8.85461C7.33164 8.71092 7.40349 8.53704 7.40349 8.33299C7.40349 8.12893 7.33164 7.95506 7.18795 7.81136C7.04425 7.66767 6.87038 7.59582 6.66632 7.59582C6.46227 7.59582 6.28839 7.66767 6.1447 7.81136C6.001 7.95506 5.92915 8.12893 5.92915 8.33299C5.92915 8.53704 6.001 8.71092 6.1447 8.85461C6.28839 8.99831 6.46227 9.07015 6.66632 9.07015ZM9.99965 9.07015C10.2037 9.07015 10.3776 8.99831 10.5213 8.85461C10.665 8.71092 10.7368 8.53704 10.7368 8.33299C10.7368 8.12893 10.665 7.95506 10.5213 7.81136C10.3776 7.66767 10.2037 7.59582 9.99965 7.59582C9.7956 7.59582 9.62172 7.66767 9.47803 7.81136C9.33433 7.95506 9.26249 8.12893 9.26249 8.33299C9.26249 8.53704 9.33433 8.71092 9.47803 8.85461C9.62172 8.99831 9.7956 9.07015 9.99965 9.07015ZM13.333 9.07015C13.537 9.07015 13.7109 8.99831 13.8546 8.85461C13.9983 8.71092 14.0702 8.53704 14.0702 8.33299C14.0702 8.12893 13.9983 7.95506 13.8546 7.81136C13.7109 7.66767 13.537 7.59582 13.333 7.59582C13.1289 7.59582 12.9551 7.66767 12.8114 7.81136C12.6677 7.95506 12.5958 8.12893 12.5958 8.33299C12.5958 8.53704 12.6677 8.71092 12.8114 8.85461C12.9551 8.99831 13.1289 9.07015 13.333 9.07015ZM5.03172 14.583L3.36347 16.2512C3.12629 16.4884 2.85358 16.5421 2.54536 16.4123C2.23713 16.2825 2.08301 16.0487 2.08301 15.7112V3.58943C2.08301 3.16848 2.22884 2.81217 2.52051 2.52051C2.81217 2.22884 3.16848 2.08301 3.58942 2.08301H16.4099C16.8308 2.08301 17.1871 2.22884 17.4788 2.52051C17.7705 2.81217 17.9163 3.16848 17.9163 3.58943V13.0766C17.9163 13.4975 17.7705 13.8538 17.4788 14.1455C17.1871 14.4371 16.8308 14.583 16.4099 14.583H5.03172ZM3.90995 13.333H16.4099C16.474 13.333 16.5328 13.3063 16.5862 13.2529C16.6396 13.1994 16.6663 13.1407 16.6663 13.0766V3.58943C16.6663 3.52531 16.6396 3.46654 16.5862 3.41311C16.5328 3.3597 16.474 3.33299 16.4099 3.33299H3.58942C3.52531 3.33299 3.46654 3.3597 3.41311 3.41311C3.3597 3.46654 3.33299 3.52531 3.33299 3.58943V13.9099L3.90995 13.333Z" fill="white"/>
</svg>
