<svg width="24" height="24" viewBox="0 0 24 24" fill="none" xmlns="http://www.w3.org/2000/svg">
<g clip-path="url(#clip0_71_746)">
<rect width="24" height="24" rx="12" fill="white"/>
<path fill-rule="evenodd" clip-rule="evenodd" d="M87.5156 0H0V87.5156H87.5156V0ZM12.0771 18.6337C15.6983 18.6337 18.6339 15.6981 18.6339 12.0768C18.6339 8.45556 15.6983 5.51994 12.0771 5.51994C8.45579 5.51994 5.52017 8.45556 5.52017 12.0768C5.52017 15.6981 8.45579 18.6337 12.0771 18.6337ZM8.01182 12.5365C8.01182 12.5365 7.56126 12.2446 8.331 11.9332C8.331 11.9332 11.5789 10.5514 12.7054 10.0649C13.1372 9.87025 14.6016 9.24745 14.6016 9.24745C14.6016 9.24745 15.2775 8.975 15.2211 9.6367C15.2076 9.83347 15.1255 10.3855 15.0243 11.0655C14.9854 11.3271 14.9437 11.6077 14.902 11.8943C14.6767 13.3539 14.4326 14.9498 14.4326 14.9498C14.4326 14.9498 14.3951 15.3974 14.0759 15.4753C13.7568 15.5531 13.2311 15.2028 13.1372 15.125C13.1209 15.1123 13.0454 15.0612 12.9321 14.9844C12.5234 14.7076 11.6232 14.0979 11.241 13.7626C11.1096 13.6459 10.9594 13.4123 11.2598 13.1399C11.9356 12.4976 12.7429 11.6997 13.2311 11.1937C13.4564 10.9601 13.6816 10.4152 12.7429 11.0769C11.41 12.0305 10.0958 12.9258 10.0958 12.9258C10.0958 12.9258 9.79538 13.1204 9.23216 12.9452C8.66892 12.7701 8.01182 12.5365 8.01182 12.5365Z" fill="#34AADF"/>
</g>
<defs>
<clipPath id="clip0_71_746">
<rect width="24" height="24" rx="12" fill="white"/>
</clipPath>
</defs>
</svg>
