<svg width="20" height="20" viewBox="0 0 20 20" fill="none" xmlns="http://www.w3.org/2000/svg">
<path fill-rule="evenodd" clip-rule="evenodd" d="M4.82332 11.6827C4.85979 11.695 4.89661 11.7037 4.93339 11.709C4.97351 11.8033 5.02533 11.9253 5.0858 12.0678C5.23337 12.4158 5.43219 12.8866 5.63742 13.3776C6.05596 14.379 6.47813 15.4113 6.57138 15.7068C6.6868 16.072 6.80881 16.3203 6.942 16.4899C7.01088 16.5776 7.09053 16.6541 7.18373 16.7121C7.23064 16.7413 7.28021 16.7652 7.33194 16.783C7.33422 16.7838 7.33649 16.7846 7.33877 16.7853C7.60545 16.886 7.84858 16.8441 8.00081 16.7928C8.08226 16.7653 8.14816 16.7323 8.19487 16.7054C8.21868 16.6917 8.2388 16.6789 8.25485 16.6681L8.25863 16.6656L10.6138 15.1968L13.3342 17.2825C13.3744 17.3133 13.4182 17.3391 13.4646 17.3593C13.7914 17.5019 14.1078 17.5517 14.4056 17.511C14.7027 17.4704 14.9387 17.3456 15.1144 17.205C15.2864 17.0674 15.403 16.9133 15.4757 16.7988C15.5127 16.7403 15.5406 16.6885 15.5602 16.6489C15.5701 16.629 15.578 16.6118 15.5841 16.5981L15.592 16.5799L15.5949 16.5728L15.5962 16.5698L15.5967 16.5683L15.5972 16.567C15.6116 16.5313 15.6225 16.4943 15.63 16.4565L18.1136 3.93529C18.1215 3.89525 18.1255 3.85452 18.1255 3.81369C18.1255 3.44702 17.9873 3.09835 17.6625 2.88677C17.3848 2.70594 17.0755 2.69816 16.88 2.71299C16.6692 2.729 16.4744 2.78106 16.3437 2.82265C16.2757 2.8443 16.2187 2.86518 16.1776 2.88112C16.1569 2.88912 16.1399 2.896 16.1273 2.90124L16.1178 2.90522L2.18974 8.36901L2.18794 8.36967C2.17907 8.37292 2.16767 8.37717 2.15413 8.38242C2.12716 8.39292 2.09102 8.40767 2.04881 8.42684C1.96649 8.46417 1.85101 8.52242 1.7325 8.60359C1.54318 8.73326 1.10777 9.08834 1.18108 9.67442C1.23958 10.142 1.55989 10.4292 1.75505 10.5673C1.86221 10.6431 1.96402 10.6973 2.03816 10.7326C2.07255 10.7489 2.14397 10.7779 2.17495 10.7906L2.18278 10.7938L4.82332 11.6827ZM16.6053 4.05622L16.6033 4.05707C16.5964 4.06009 16.5894 4.06297 16.5824 4.06574L2.63737 9.53617C2.63008 9.53901 2.62275 9.54176 2.61537 9.54434L2.60761 9.54726C2.59868 9.55076 2.58367 9.55684 2.56482 9.56534C2.55413 9.57017 2.54297 9.57551 2.53159 9.58117C2.54723 9.59001 2.56218 9.59759 2.57547 9.60392C2.58823 9.61001 2.59796 9.61417 2.60328 9.61634L5.22214 10.498C5.27008 10.5142 5.31476 10.5355 5.35578 10.5613L14.0031 5.49924L14.0112 5.49446C14.0175 5.49073 14.0257 5.48595 14.0357 5.48034C14.0553 5.46922 14.0824 5.45441 14.1146 5.43803C14.1746 5.40749 14.2706 5.36215 14.3787 5.32872C14.4541 5.30544 14.6762 5.23987 14.9162 5.31687C15.0644 5.3644 15.2178 5.46657 15.3176 5.63966C15.3672 5.72565 15.3936 5.81203 15.4063 5.89111C15.4403 6.01567 15.435 6.13868 15.4084 6.24487C15.3511 6.47363 15.1903 6.65207 15.0441 6.78855C14.9188 6.90556 13.2977 8.46876 11.6984 10.0119C10.9008 10.7814 10.1114 11.5434 9.5214 12.1129L9.13382 12.4871L14.0272 16.2386C14.1393 16.2788 14.2057 16.2768 14.2364 16.2725C14.273 16.2675 14.3029 16.2534 14.3335 16.229C14.3677 16.2017 14.3976 16.1647 14.4199 16.1294L14.4208 16.128L16.8296 3.98386C16.7938 3.99245 16.7577 4.00268 16.7228 4.01377C16.6833 4.02632 16.6508 4.03829 16.6292 4.04665C16.6186 4.05079 16.6109 4.05393 16.6067 4.05567L16.6053 4.05622ZM9.55423 14.3845L8.57798 13.636L8.3414 15.1408L9.55423 14.3845ZM7.68242 12.1508L8.65323 11.2136C9.24332 10.644 10.0328 9.88201 10.8304 9.11234L11.6408 8.33051L6.20748 11.5112L6.23663 11.5799C6.38471 11.9292 6.58443 12.4019 6.79074 12.8956C6.94502 13.2647 7.10634 13.6533 7.25328 14.0132L7.48914 12.5128C7.51188 12.3682 7.58255 12.243 7.68242 12.1508Z" fill="white"/>
</svg>
