<svg width="32" height="32" fill="none" xmlns="http://www.w3.org/2000/svg"><g clip-path="url(#a)"><rect width="32" height="32" rx="7" fill="#fff"/><path fill-rule="evenodd" clip-rule="evenodd" d="M87.516 0H0v87.516h87.516V0ZM16.103 24.845a8.742 8.742 0 1 0 0-17.485 8.742 8.742 0 0 0 0 17.485Zm-4.995-8.934s4.33-1.842 5.832-2.491c.576-.26 2.529-1.09 2.529-1.09s.9-.363.826.519c-.018.262-.128.998-.263 1.905v.002l-.163 1.103-.626 4.074s-.05.597-.475.7c-.426.105-1.127-.363-1.252-.466-.021-.017-.122-.085-.273-.188-.545-.369-1.745-1.182-2.255-1.629-.175-.155-.375-.467.025-.83a97.16 97.16 0 0 0 2.628-2.595c.3-.312.601-1.038-.65-.156a213.846 213.846 0 0 1-3.53 2.465s-.4.26-1.152.026a50.707 50.707 0 0 1-1.627-.545s-.6-.389.426-.804Z" fill="#34AADF"/></g><defs><clipPath id="a"><rect width="32" height="32" rx="7" fill="#fff"/></clipPath></defs></svg>