<svg width="32" height="32" viewBox="0 0 32 32" fill="none" xmlns="http://www.w3.org/2000/svg">
<g clip-path="url(#clip0_84_6991)">
<rect width="32" height="32" rx="16" fill="white"/>
<path fill-rule="evenodd" clip-rule="evenodd" d="M87.5156 0H0V87.5156H87.5156V0ZM16.1019 24.8449C20.9302 24.8449 24.8444 20.9307 24.8444 16.1024C24.8444 11.274 20.9302 7.35986 16.1019 7.35986C11.2735 7.35986 7.35938 11.274 7.35938 16.1024C7.35938 20.9307 11.2735 24.8449 16.1019 24.8449ZM11.1071 15.9109C11.1071 15.9109 15.4377 14.0685 16.9397 13.4198C17.5154 13.1603 19.4679 12.3299 19.4679 12.3299C19.4679 12.3299 20.3691 11.9666 20.294 12.8489C20.2759 13.1112 20.1665 13.8472 20.0316 14.7539L20.0314 14.7555C19.9796 15.1039 19.924 15.4774 19.8685 15.859C19.5681 17.8052 19.2426 19.933 19.2426 19.933C19.2426 19.933 19.1926 20.5299 18.767 20.6337C18.3415 20.7375 17.6406 20.2704 17.5154 20.1666C17.4937 20.1497 17.393 20.0815 17.242 19.9792L17.242 19.9792C16.697 19.6101 15.4968 18.7971 14.9871 18.3501C14.8119 18.1944 14.6117 17.8831 15.0122 17.5198C15.9133 16.6634 16.9897 15.5995 17.6406 14.9248C17.941 14.6134 18.2413 13.8869 16.9897 14.7691C15.2124 16.0406 13.4602 17.2343 13.4602 17.2343C13.4602 17.2343 13.0597 17.4938 12.3087 17.2602C11.5577 17.0267 10.6816 16.7153 10.6816 16.7153C10.6816 16.7153 10.0808 16.3261 11.1071 15.9109Z" fill="#34AADF"/>
</g>
<defs>
<clipPath id="clip0_84_6991">
<rect width="32" height="32" rx="16" fill="white"/>
</clipPath>
</defs>
</svg>
