<svg width="24" height="24" viewBox="0 0 24 24" fill="none" xmlns="http://www.w3.org/2000/svg">
<g clip-path="url(#clip0_68_19)">
<path d="M24 0H0V8.00016H24V0Z" fill="#82AFFF"/>
<path d="M24 15.9999H0V24H24V15.9999Z" fill="#73AF00"/>
<path d="M24 8.00012H0V16.0003H24V8.00012Z" fill="#F5F5F5"/>
<path d="M24 7.28955H0V8.28705H24V7.28955Z" fill="#FF4B55"/>
<path d="M24 15.713H0V16.7105H24V15.713Z" fill="#FF4B55"/>
<path d="M5.68017 5.99516C4.38717 5.99516 3.33914 4.94957 3.33914 3.66121C3.33914 2.36811 4.38717 1.31788 5.68017 1.31788C5.6851 1.31788 5.69006 1.31793 5.69494 1.31797C5.77102 1.319 5.79774 1.21785 5.73066 1.18189C5.3325 0.96852 4.8781 0.847723 4.395 0.851145C2.84789 0.862207 1.59122 2.14424 1.60758 3.6913C1.6238 5.22247 2.87555 6.46185 4.41516 6.46185C4.89164 6.46185 5.33963 6.34133 5.73277 6.13086C5.79966 6.09505 5.77261 5.99385 5.69677 5.99502C5.69128 5.99511 5.68575 5.99516 5.68017 5.99516Z" fill="#F5F5F5"/>
<path d="M7.51349 5.34978L7.40891 5.66328L7.07845 5.66586C7.03565 5.66619 7.01793 5.7208 7.05234 5.7462L7.31821 5.94252L7.21851 6.25761C7.20562 6.29839 7.25207 6.33214 7.28685 6.30725L7.55573 6.11506L7.8246 6.30725C7.85943 6.33214 7.90584 6.29839 7.89295 6.25761L7.79324 5.94252L8.05912 5.7462C8.09352 5.7208 8.07581 5.66619 8.03301 5.66586L7.70254 5.66328L7.59796 5.34978C7.58446 5.30919 7.52704 5.30919 7.51349 5.34978Z" fill="#F5F5F5"/>
<path d="M9.33869 5.34978L9.23411 5.66328L8.90364 5.66586C8.86084 5.66619 8.84313 5.7208 8.87753 5.7462L9.14341 5.94252L9.0437 6.25761C9.03081 6.29839 9.07727 6.33214 9.11205 6.30725L9.38092 6.11506L9.6498 6.30725C9.68463 6.33214 9.73103 6.29839 9.71814 6.25761L9.61844 5.94252L9.88431 5.7462C9.91872 5.7208 9.901 5.66619 9.8582 5.66586L9.52774 5.66328L9.42316 5.34978C9.40966 5.30919 9.35224 5.30919 9.33869 5.34978Z" fill="#F5F5F5"/>
<path d="M13.0418 5.34978L12.9372 5.66328L12.6068 5.66586C12.564 5.66619 12.5463 5.7208 12.5807 5.7462L12.8465 5.94252L12.7468 6.25761C12.7339 6.29839 12.7804 6.33214 12.8152 6.30725L13.084 6.11506L13.3529 6.30725C13.3878 6.33214 13.4342 6.29839 13.4213 6.25761L13.3216 5.94252L13.5874 5.7462C13.6218 5.7208 13.6041 5.66619 13.5613 5.66586L13.2309 5.66328L13.1263 5.34978C13.1128 5.30919 13.0554 5.30919 13.0418 5.34978Z" fill="#F5F5F5"/>
<path d="M14.8582 5.34978L14.7536 5.66328L14.4232 5.66586C14.3804 5.66619 14.3627 5.7208 14.3971 5.7462L14.6629 5.94252L14.5632 6.25761C14.5503 6.29839 14.5968 6.33214 14.6316 6.30725L14.9005 6.11506L15.1693 6.30725C15.2042 6.33214 15.2506 6.29839 15.2377 6.25761L15.138 5.94252L15.4038 5.7462C15.4383 5.7208 15.4205 5.66619 15.3777 5.66586L15.0473 5.66328L14.9427 5.34978C14.9292 5.30919 14.8718 5.30919 14.8582 5.34978Z" fill="#F5F5F5"/>
<path d="M9.33869 3.17669L9.23411 3.49019L8.90364 3.49276C8.86084 3.49309 8.84313 3.5477 8.87753 3.57311L9.14341 3.76942L9.0437 4.08451C9.03081 4.1253 9.07727 4.15905 9.11205 4.13415L9.38092 3.94197L9.6498 4.13415C9.68463 4.15905 9.73103 4.1253 9.71814 4.08451L9.61844 3.76942L9.88431 3.57311C9.91872 3.5477 9.901 3.49309 9.8582 3.49276L9.52774 3.49019L9.42316 3.17669C9.40966 3.13609 9.35224 3.13609 9.33869 3.17669Z" fill="#F5F5F5"/>
<path d="M11.202 3.17669L11.0974 3.49019L10.7669 3.49276C10.7241 3.49309 10.7064 3.5477 10.7408 3.57311L11.0067 3.76942L10.907 4.08451C10.8941 4.1253 10.9405 4.15905 10.9753 4.13415L11.2442 3.94197L11.5131 4.13415C11.5479 4.15905 11.5943 4.1253 11.5814 4.08451L11.4817 3.76942L11.7476 3.57311C11.782 3.5477 11.7643 3.49309 11.7215 3.49276L11.391 3.49019L11.2864 3.17669C11.2729 3.13609 11.2155 3.13609 11.202 3.17669Z" fill="#F5F5F5"/>
<path d="M13.0418 3.17669L12.9372 3.49019L12.6068 3.49276C12.564 3.49309 12.5463 3.5477 12.5807 3.57311L12.8465 3.76942L12.7468 4.08451C12.7339 4.1253 12.7804 4.15905 12.8152 4.13415L13.084 3.94197L13.3529 4.13415C13.3878 4.15905 13.4342 4.1253 13.4213 4.08451L13.3216 3.76942L13.5874 3.57311C13.6218 3.5477 13.6041 3.49309 13.5613 3.49276L13.2309 3.49019L13.1263 3.17669C13.1128 3.13609 13.0554 3.13609 13.0418 3.17669Z" fill="#F5F5F5"/>
<path d="M14.8582 3.17669L14.7536 3.49019L14.4232 3.49276C14.3804 3.49309 14.3627 3.5477 14.3971 3.57311L14.6629 3.76942L14.5632 4.08451C14.5503 4.1253 14.5968 4.15905 14.6316 4.13415L14.9005 3.94197L15.1693 4.13415C15.2042 4.15905 15.2506 4.1253 15.2377 4.08451L15.138 3.76942L15.4038 3.57311C15.4383 3.5477 15.4205 3.49309 15.3777 3.49276L15.0473 3.49019L14.9427 3.17669C14.9292 3.13609 14.8718 3.13609 14.8582 3.17669Z" fill="#F5F5F5"/>
<path d="M11.202 5.34978L11.0974 5.66328L10.7669 5.66586C10.7241 5.66619 10.7064 5.7208 10.7408 5.7462L11.0067 5.94252L10.907 6.25761C10.8941 6.29839 10.9405 6.33214 10.9753 6.30725L11.2442 6.11506L11.5131 6.30725C11.5479 6.33214 11.5943 6.29839 11.5814 6.25761L11.4817 5.94252L11.7476 5.7462C11.782 5.7208 11.7643 5.66619 11.7215 5.66586L11.391 5.66328L11.2864 5.34978C11.2729 5.30919 11.2155 5.30919 11.202 5.34978Z" fill="#F5F5F5"/>
<path d="M11.202 1.00355L11.0974 1.31705L10.7669 1.31963C10.7241 1.31996 10.7064 1.37457 10.7408 1.39998L11.0067 1.59629L10.907 1.91138C10.8941 1.95216 10.9405 1.98591 10.9753 1.96102L11.2442 1.76884L11.5131 1.96102C11.5479 1.98591 11.5943 1.95216 11.5814 1.91138L11.4817 1.59629L11.7476 1.39998C11.782 1.37457 11.7643 1.31996 11.7215 1.31963L11.391 1.31705L11.2864 1.00355C11.2729 0.963008 11.2155 0.963008 11.202 1.00355Z" fill="#F5F5F5"/>
<path d="M13.0418 5.34978L12.9372 5.66328L12.6068 5.66586C12.564 5.66619 12.5463 5.7208 12.5807 5.7462L12.8465 5.94252L12.7468 6.25761C12.7339 6.29839 12.7804 6.33214 12.8152 6.30725L13.084 6.11506L13.3529 6.30725C13.3878 6.33214 13.4342 6.29839 13.4213 6.25761L13.3216 5.94252L13.5874 5.7462C13.6218 5.7208 13.6041 5.66619 13.5613 5.66586L13.2309 5.66328L13.1263 5.34978C13.1128 5.30919 13.0554 5.30919 13.0418 5.34978Z" fill="#F5F5F5"/>
<path d="M14.8582 5.34978L14.7536 5.66328L14.4232 5.66586C14.3804 5.66619 14.3627 5.7208 14.3971 5.7462L14.6629 5.94252L14.5632 6.25761C14.5503 6.29839 14.5968 6.33214 14.6316 6.30725L14.9005 6.11506L15.1693 6.30725C15.2042 6.33214 15.2506 6.29839 15.2377 6.25761L15.138 5.94252L15.4038 5.7462C15.4383 5.7208 15.4205 5.66619 15.3777 5.66586L15.0473 5.66328L14.9427 5.34978C14.9292 5.30919 14.8718 5.30919 14.8582 5.34978Z" fill="#F5F5F5"/>
<path d="M13.0418 1.00355L12.9372 1.31705L12.6068 1.31963C12.564 1.31996 12.5463 1.37457 12.5807 1.39998L12.8465 1.59629L12.7468 1.91138C12.7339 1.95216 12.7804 1.98591 12.8152 1.96102L13.084 1.76884L13.3529 1.96102C13.3878 1.98591 13.4342 1.95216 13.4213 1.91138L13.3216 1.59629L13.5874 1.39998C13.6218 1.37457 13.6041 1.31996 13.5613 1.31963L13.2309 1.31705L13.1263 1.00355C13.1128 0.963008 13.0554 0.963008 13.0418 1.00355Z" fill="#F5F5F5"/>
<path d="M14.8582 1.00355L14.7536 1.31705L14.4232 1.31963C14.3804 1.31996 14.3627 1.37457 14.3971 1.39998L14.6629 1.59629L14.5632 1.91138C14.5503 1.95216 14.5968 1.98591 14.6316 1.96102L14.9005 1.76884L15.1693 1.96102C15.2042 1.98591 15.2506 1.95216 15.2377 1.91138L15.138 1.59629L15.4038 1.39998C15.4383 1.37457 15.4205 1.31996 15.3777 1.31963L15.0473 1.31705L14.9427 1.00355C14.9292 0.963008 14.8718 0.963008 14.8582 1.00355Z" fill="#F5F5F5"/>
</g>
<defs>
<clipPath id="clip0_68_19">
<rect width="24" height="24" rx="4" fill="white"/>
</clipPath>
</defs>
</svg>
