<svg width="32" height="32" viewBox="0 0 32 32" fill="none" xmlns="http://www.w3.org/2000/svg">
<rect width="32" height="32" rx="16" fill="#00D95F"/>
<path d="M6.00195 26L7.43691 20.6692C6.27965 18.5926 5.91198 16.1694 6.40136 13.8442C6.89074 11.5191 8.20435 9.4479 10.1011 8.01082C11.9979 6.57373 14.3506 5.86712 16.7276 6.02064C19.1045 6.17417 21.3462 7.17753 23.0414 8.84661C24.7365 10.5157 25.7713 12.7385 25.956 15.1072C26.1407 17.476 25.4628 19.8316 24.0467 21.742C22.6306 23.6524 20.5713 24.9894 18.2467 25.5076C15.9222 26.0258 13.4882 25.6904 11.3915 24.5631L6.00195 26ZM11.6514 22.5683L11.9847 22.7655C13.5034 23.6633 15.2772 24.0349 17.0297 23.8222C18.7822 23.6096 20.4149 22.8246 21.6735 21.5898C22.932 20.3549 23.7457 18.7394 23.9877 16.9951C24.2296 15.2508 23.8863 13.4756 23.0113 11.9463C22.1362 10.4169 20.7785 9.21922 19.1497 8.53987C17.521 7.86052 15.7127 7.73766 14.0066 8.19045C12.3006 8.64323 10.7926 9.64622 9.71772 11.0431C8.64282 12.44 8.06137 14.1523 8.06399 15.9132C8.06257 17.3733 8.4674 18.8052 9.23342 20.0494L9.44245 20.3931L8.64024 23.3684L11.6514 22.5683Z" fill="white"/>
<path fill-rule="evenodd" clip-rule="evenodd" d="M19.7412 17.2821C19.5458 17.1249 19.317 17.0142 19.0723 16.9585C18.8275 16.9029 18.5732 16.9037 18.3288 16.9609C17.9616 17.113 17.7244 17.6878 17.4871 17.9752C17.437 18.0441 17.3635 18.0924 17.2803 18.111C17.1971 18.1297 17.1099 18.1175 17.0351 18.0766C15.6907 17.5514 14.5639 16.5882 13.8375 15.3436C13.7756 15.2659 13.7463 15.1673 13.7558 15.0685C13.7652 14.9697 13.8128 14.8784 13.8884 14.8139C14.153 14.5526 14.3473 14.2289 14.4533 13.8728C14.4769 13.4801 14.3867 13.0889 14.1935 12.7458C14.0441 12.2649 13.7599 11.8367 13.3743 11.5118C13.1754 11.4225 12.9549 11.3926 12.7394 11.4256C12.5239 11.4586 12.3226 11.5531 12.1597 11.6977C11.8769 11.9411 11.6525 12.2446 11.5029 12.5859C11.3533 12.9272 11.2823 13.2977 11.2953 13.67C11.2962 13.879 11.3227 14.0872 11.3744 14.2898C11.5056 14.7767 11.7073 15.2418 11.9732 15.6704C12.1651 15.9988 12.3744 16.3167 12.6003 16.6228C13.3345 17.628 14.2574 18.4816 15.3177 19.136C15.8498 19.4685 16.4185 19.7389 17.0125 19.9418C17.6296 20.2208 18.311 20.3279 18.9842 20.2517C19.3678 20.1938 19.7312 20.0428 20.0425 19.8118C20.3538 19.5809 20.6034 19.2772 20.7694 18.9275C20.8669 18.7162 20.8965 18.48 20.8541 18.2513C20.7524 17.7836 20.1254 17.5075 19.7412 17.2821Z" fill="white"/>
</svg>
