<svg width="32" height="32" viewBox="0 0 32 32" fill="none" xmlns="http://www.w3.org/2000/svg">
<g clip-path="url(#clip0_84_6987)">
<rect width="32" height="32" rx="16" fill="white"/>
<path fill-rule="evenodd" clip-rule="evenodd" d="M87.5156 0H0V87.5156H87.5156V0ZM24.5806 11.5986C24.3717 10.8132 23.7536 10.1936 22.9672 9.98119C21.5454 9.6001 15.8407 9.6001 15.8407 9.6001C15.8407 9.6001 10.1389 9.6001 8.71416 9.98119C7.93071 10.1906 7.31265 10.8103 7.10082 11.5986C6.7207 13.0241 6.7207 16.0001 6.7207 16.0001C6.7207 16.0001 6.7207 18.9761 7.10082 20.4016C7.30975 21.187 7.9278 21.8066 8.71416 22.019C10.1389 22.4001 15.8407 22.4001 15.8407 22.4001C15.8407 22.4001 21.5454 22.4001 22.9672 22.019C23.7507 21.8096 24.3688 21.1899 24.5806 20.4016C24.9607 18.9761 24.9607 16.0001 24.9607 16.0001C24.9607 16.0001 24.9607 13.0241 24.5806 11.5986ZM14.0184 18.7434L18.7569 16.0001L14.0184 13.2568V18.7434Z" fill="#FF3000"/>
</g>
<defs>
<clipPath id="clip0_84_6987">
<rect width="32" height="32" rx="16" fill="white"/>
</clipPath>
</defs>
</svg>
