<svg xmlns="http://www.w3.org/2000/svg" width="20" height="20" fill="none"><g clip-path="url(#a)"><rect width="20" height="20" fill="#fff" rx="10"/><path fill="#34AADF" fill-rule="evenodd" d="M87.516 0H0v87.516h87.516V0ZM10.065 15.528a5.464 5.464 0 1 0 0-10.928 5.464 5.464 0 0 0 0 10.928Zm-3.388-5.08s-.376-.244.266-.504c0 0 2.707-1.151 3.645-1.557.36-.162 1.58-.68 1.58-.68s.564-.228.517.324c-.012.164-.08.624-.164 1.19-.033.219-.068.452-.102.69-.188 1.217-.391 2.547-.391 2.547s-.032.373-.298.438-.704-.227-.782-.292l-.17-.117c-.341-.23-1.092-.739-1.41-1.018-.11-.097-.235-.292.016-.52.563-.534 1.236-1.2 1.642-1.62.188-.196.376-.65-.406-.098-1.111.794-2.206 1.54-2.206 1.54s-.25.163-.72.017c-.47-.146-1.017-.34-1.017-.34Z" clip-rule="evenodd"/></g><defs><clipPath id="a"><rect width="20" height="20" fill="#fff" rx="10"/></clipPath></defs></svg>