<svg xmlns="http://www.w3.org/2000/svg" width="24" height="24" fill="none"><path fill="#0A97BC" d="M16 8.308v-3H8v3H6.5v-3.6c0-.256.086-.47.26-.642a.877.877 0 0 1 .643-.258h9.189a.88.88 0 0 1 .908.9v3.6H16Zm1.807 4c.284 0 .521-.096.713-.288a.967.967 0 0 0 .287-.713.968.968 0 0 0-.287-.712.968.968 0 0 0-.713-.288.968.968 0 0 0-.712.288.968.968 0 0 0-.288.712c0 .284.096.521.288.713.191.192.429.287.712.287ZM8.307 19h7.385a.3.3 0 0 0 .221-.087.3.3 0 0 0 .087-.22V14.73H8v3.961a.3.3 0 0 0 .086.221.3.3 0 0 0 .221.087Zm0 1.5a1.74 1.74 0 0 1-1.276-.531 1.74 1.74 0 0 1-.531-1.277V16.5H3.692a.875.875 0 0 1-.644-.26.875.875 0 0 1-.26-.644v-4.789c0-.708.242-1.302.726-1.78.484-.48 1.075-.72 1.774-.72h13.423c.708 0 1.302.24 1.781.72.48.478.719 1.072.719 1.78v4.789c0 .256-.087.47-.26.644a.875.875 0 0 1-.644.26H17.5v2.192c0 .497-.177.923-.532 1.277a1.74 1.74 0 0 1-1.276.53H8.307ZM19.711 15v-4.193a.968.968 0 0 0-.287-.712.968.968 0 0 0-.713-.287H5.288a.968.968 0 0 0-.712.287.968.968 0 0 0-.288.712V15H6.5v-1.77h11V15h2.211Z"/></svg>