<svg width="41" height="38" viewBox="0 0 41 38" fill="none" xmlns="http://www.w3.org/2000/svg">
  <g id="4">
    <g id="Rectangle 20" filter="url(#filter0_d_39_55)">
      <path
        d="M4 3C4 1.34315 5.34315 0 7 0H34C35.6569 0 37 1.34315 37 3V21C37 22.6569 35.6569 24 34 24H22.0277C21.0679 24 20.166 24.4593 19.6015 25.2355L16.5 29.5L13.1507 25.1657C12.5826 24.4305 11.706 24 10.7769 24H7C5.34315 24 4 22.6569 4 21V3Z"
        fill="#0A97BC" />
    </g>
    <g id="1">
      <path id="Vector 2"
        d="M18.2588 12.2704V18.2113C18.2588 18.3561 18.3762 18.4734 18.521 18.4734H19.9068C20.0516 18.4734 20.169 18.3561 20.169 18.2113V12.7974L20.169 12.7959C20.169 12.7933 20.169 12.7919 20.1692 12.7888C20.175 12.6743 20.3678 9.46576 23.6909 9.46576C27.177 9.46576 27.3439 12.7194 27.3471 12.7907L27.3472 12.7953L27.4235 18.2637C27.4255 18.4071 27.5423 18.5223 27.6857 18.5223H29.0473C29.1934 18.5223 29.3114 18.4028 29.3095 18.2567L29.233 12.2721L29.233 12.2659C29.2345 12.1687 29.272 7.66456 23.5553 7.66455C18.3957 7.66454 18.2604 12.2049 18.2588 12.2669L18.2588 12.2704Z"
        fill="white" />
      <g id="Union">
        <path
          d="M11.8438 4.91309C11.757 4.91309 11.6865 4.98352 11.6865 5.0704V6.66615C11.6865 6.75303 11.757 6.82347 11.8438 6.82347H13.4396C13.5265 6.82347 13.5969 6.75303 13.5969 6.66615V5.0704C13.5969 4.98352 13.5265 4.91309 13.4396 4.91309H11.8438Z"
          fill="white" />
        <path
          d="M11.7297 8.01947V10.8502C11.7167 11.8752 11.6952 13.9279 12.0555 14.9286C12.5526 16.309 13.2727 17.2968 14.2706 17.8472C15.0508 18.2775 15.56 18.5542 16.8358 18.5867C16.9806 18.5904 17.0981 18.4726 17.0981 18.3277V17.1452C17.0981 17.0004 16.9807 16.8832 16.8361 16.8752C16.5524 16.8595 16.1297 16.814 15.782 16.6876C14.385 16.1795 13.6378 14.2256 13.6117 13.4632C13.5653 12.1063 13.5818 9.41918 13.5913 8.02116C13.5922 7.87567 13.4746 7.75728 13.3291 7.75728H11.9919C11.8471 7.75728 11.7297 7.87466 11.7297 8.01947Z"
          fill="white" />
      </g>
    </g>
  </g>
  <defs>
    <filter id="filter0_d_39_55" x="0" y="0" width="41" height="37.5" filterUnits="userSpaceOnUse"
      color-interpolation-filters="sRGB">
      <feFlood flood-opacity="0" result="BackgroundImageFix" />
      <feColorMatrix in="SourceAlpha" type="matrix"
        values="0 0 0 0 0 0 0 0 0 0 0 0 0 0 0 0 0 0 127 0" result="hardAlpha" />
      <feOffset dy="4" />
      <feGaussianBlur stdDeviation="2" />
      <feComposite in2="hardAlpha" operator="out" />
      <feColorMatrix type="matrix" values="0 0 0 0 0 0 0 0 0 0 0 0 0 0 0 0 0 0 0.25 0" />
      <feBlend mode="normal" in2="BackgroundImageFix" result="effect1_dropShadow_39_55" />
      <feBlend mode="normal" in="SourceGraphic" in2="effect1_dropShadow_39_55" result="shape" />
    </filter>
  </defs>
</svg>