<svg width="38" height="38" viewBox="0 0 38 38" fill="none" xmlns="http://www.w3.org/2000/svg">
<g id="1">
<circle id="Ellipse 2" cx="19" cy="19" r="19" fill="#EEF4F8"/>
<g id="12">
<path id="Rectangle 20" d="M8 12.1864C8 10.9789 8.9789 10 10.1864 10H27.8136C29.0211 10 30 10.9789 30 12.1864V23.2712C30 24.4787 29.0211 25.4576 27.8136 25.4576H20.0908C19.404 25.4576 18.757 25.7804 18.344 26.3291L16.3333 29L14.1565 26.2784C13.7415 25.7596 13.1133 25.4576 12.449 25.4576H10.1864C8.9789 25.4576 8 24.4787 8 23.2712V12.1864Z" fill="#0ABC3C"/>
<g id="1_2">
<path id="Vector 2" d="M17 17.9696V21.7774C17 21.883 17.0856 21.9685 17.1911 21.9685H18.0186C18.1241 21.9685 18.2096 21.883 18.2096 21.7774V18.3095L18.2098 18.3031C18.2139 18.2215 18.3398 16.1612 20.4399 16.1612C22.6448 16.1612 22.7529 18.2537 22.7552 18.3047L22.7553 18.308L22.8032 21.8115C22.8047 21.916 22.8898 22 22.9943 22H23.8065C23.913 22 23.9989 21.913 23.9976 21.8065L23.9494 17.9708L23.9494 17.9663C23.9504 17.8968 23.9697 15 20.354 15C17.0891 15 17.0012 17.9227 17 17.967L17 17.9696Z" fill="white"/>
<g id="Union">
<path d="M13.1163 13C13.0521 13 13 13.0464 13 13.1035V14.1539C13 14.211 13.0521 14.2574 13.1163 14.2574H14.2958C14.36 14.2574 14.4121 14.211 14.4121 14.1539V13.1035C14.4121 13.0464 14.36 13 14.2958 13H13.1163Z" fill="white"/>
<path d="M13.0319 15.0446V16.9078C13.0223 17.5825 13.0064 18.9335 13.2727 19.5922C13.6402 20.5008 14.1724 21.151 14.91 21.5132C15.4867 21.7964 15.8632 21.9785 16.8062 21.9999C16.9132 22.0024 17 21.9248 17 21.8295V21.0512C17 20.9559 16.9133 20.8787 16.8064 20.8734C16.5967 20.8631 16.2842 20.8332 16.0273 20.7499C14.9946 20.4155 14.4423 19.1295 14.423 18.6277C14.3887 17.7345 14.4009 15.9659 14.4079 15.0457C14.4086 14.95 14.3217 14.872 14.2141 14.872H13.2258C13.1187 14.872 13.0319 14.9493 13.0319 15.0446Z" fill="white"/>
</g>
</g>
</g>
</g>
</svg>
